<svg xmlns="http://www.w3.org/2000/svg" viewBox="0 0 400.05 51.38"><path d="M0 45.08a22.11 22.11 0 0015.47 6.3c9.52 0 15.05-6 15.05-13.51C30.52 22.05 6 25.2 6 13.37c0-5.18 4.69-8.26 10.29-8.26a16.61 16.61 0 0110.85 4.2l2.38-4.06a19.53 19.53 0 00-13-4.76C7.84.49 1 5.6 1 13.65 1 28.91 25.55 26 25.55 38.36c0 5.11-4.13 8.4-9.94 8.4a19 19 0 01-12.74-5.39zm41.16 5.46H46V28.07h28.48v22.47h4.9V1.33h-4.9v22.4H46V1.33h-4.84v49.21zm49-24.99c0 14.49 10.71 25.83 25.06 25.83S140.28 40 140.28 25.55c0-14.07-10.64-25.06-25.06-25.06a24.6 24.6 0 00-25.06 25.06zm5 0c0-11.62 8.54-20.51 20-20.51s20 8.89 20 20.51c0 12-8.47 21.28-20 21.28S95.2 37.59 95.2 25.55zm56.04 24.99h4.8V31.22h12.18c8.75 0 15.19-5.88 15.19-15.05S177 1.33 168.21 1.33h-17v49.21zm4.8-23.66V5.67h11.62c6.51 0 10.78 3.85 10.78 10.5s-4.27 10.71-10.85 10.71H156zm33.07-1.26c0 15.61 11.27 25.76 24.36 25.76 5.67 0 11.2-2.17 14.42-5.32h.15s-.07 1-.07 2.1v2.38h7.7V24.36h-15.76v7.77h7.63v5.81a18.39 18.39 0 01-12.5 5.18c-9.31 0-16.66-7.07-16.66-17.78 0-9.24 6-17.08 17.08-17.08A21.73 21.73 0 01228.69 13l4.48-6.72c-5.11-4.41-12-6.3-18.48-6.3-14.77.02-25.62 11.22-25.62 25.64zM245 32.69c0 11.13 8.05 18.69 20.09 18.69s20-7.56 20-18.69V.84h-9v31.78c0 6.72-4.34 10.5-11 10.5s-11-3.78-11-10.5V.84h-9v31.85zm51.52 17.85h9V.84h-9v49.7zm21.07 0h16.94c15.33 0 25.34-9.24 25.34-24.92S349.86.84 334.53.84h-16.94v49.7zm9-7.77V8.61H334c9.94 0 16.52 6 16.52 17s-6.4 17.16-16.52 17.16h-7.42zm42.59 7.77H400v-7.77h-21.79V29.4h16.73v-7.77h-16.73v-13h20.72V.84h-29.75v49.7z" fill="#fff"/></svg>